# xmcd CD database file
#
# Track frame offsets:
#	150
#	30188
#	49125
#	70125
#	90713
#	130762
#	151237
#	187705
#	211753
#	243778
#	286791
#
# Disc length: 4291 seconds
#
# Revision: 0
# Processed by: cddbd v1.5.2PL0 Copyright (c) Steve Scherf et al.
# Submitted via: CDex 1.70beta2
#
DISCID=7f10c10b
DTITLE=The Oscar Peterson Trio - Live In Vienna 1968
DYEAR=1968
DGENRE=Jazz
TTITLE0=You Look Good To Me
TTITLE1=Let's Fall In Love
TTITLE2=Someday My Prince Will Come
TTITLE3=On A Clear Day
TTITLE4=Waltz For Debby
TTITLE5=Noreen's Nocturne
TTITLE6=Never Say Yes
TTITLE7=Summer Samba
TTITLE8=Li'l Darlin'
TTITLE9=Medley: I Concentrate on You - I Got It Bad And That Ain't Good
TTITLE10=The Lamp is Low
EXTD=YEAR: 1968
EXTT0=
EXTT1=
EXTT2=
EXTT3=
EXTT4=
EXTT5=
EXTT6=
EXTT7=
EXTT8=
EXTT9=
EXTT10=
PLAYORDER=
